<?xml version="1.0" encoding="utf-8"?>
<!-- Generator: Adobe Illustrator 25.4.1, SVG Export Plug-In . SVG Version: 6.00 Build 0)  -->
<svg version="1.1" id="Layer_1" xmlns="http://www.w3.org/2000/svg" xmlns:xlink="http://www.w3.org/1999/xlink" x="0px" y="0px"
	 viewBox="0 0 981.66 135.68" style="enable-background:new 0 0 981.66 135.68;" xml:space="preserve">
<style type="text/css">
	.st0{fill:#C1A02E;}
	.st1{fill:#54575A;}
</style>
<g>
	<path class="st0" d="M566.87,101.65c-1.11,0.21-2.13,0.32-3.07,0.32c-2.42,0-4.53-0.77-6.35-2.3c-1.81-1.53-3.83-3.94-6.05-7.22
		c3.43-5.35,5.14-11.72,5.14-19.14c0-1.53-0.1-3.21-0.3-5.02c-0.1-0.64,0.18-1.05,0.86-1.23l6.3-1.66l-0.15-2.35
		c-1.34,0.07-2.76,0.13-4.26,0.16c-1.49,0.04-3.1,0.05-4.81,0.05c-1.98,0-3.92-0.02-5.82-0.05c-1.9-0.03-3.8-0.09-5.72-0.16
		l0.1,2.41l6.25,1.33c0.64,0.14,1.12,0.36,1.44,0.64c0.32,0.29,0.53,0.77,0.63,1.44c0.2,1.36,0.3,3.12,0.3,5.29
		c0,5.31-1.11,10.05-3.33,14.22l-21.48-24.96c10.29-5.1,15.05-11.04,15.05-18.42c0-4.56-1.25-8.43-4.51-11.03
		c-3.27-2.6-7.29-3.9-12.08-3.9c-5.44,0-9.99,1.53-13.65,4.6c-3.66,3.07-5.49,7.15-5.49,12.24c0,2.78,0.51,5.49,1.54,8.13
		c1.02,2.64,3.37,6.24,7.03,10.8c-9.74,5.42-14.61,12.26-14.61,20.52c0,6.1,2.37,10.92,7.1,14.49c4.73,3.56,10.56,5.35,17.48,5.35
		c7.39,0,14.09-2.32,20.11-6.95c3.73,4.77,8.25,7.16,13.55,7.16c3.19,0,6.26-0.8,9.22-2.4L566.87,101.65z M519.52,35.58
		c2.89-1.66,6.9-1.4,9.48,0.71c2.78,2.28,3.67,5.45,3.61,8.86c-0.11,6.64-3.6,11.41-8.73,15.39c-4.34-4.6-7.95-9.3-8.62-15.67
		C514.87,41.06,516.52,37.3,519.52,35.58 M526.76,100.58c-5.01,0-8.91-1.44-11.71-4.33c-2.8-2.89-4.21-6.79-4.21-11.71
		c0-6.27,2.39-11.49,7.15-15.66l21.97,26.68C535.97,98.9,531.57,100.58,526.76,100.58"/>
	<path class="st1" d="M63.99,73.53H47.84v13.97h16.6c6.17,0,9.89-2.18,9.89-6.9v-0.18C74.34,76.17,71.16,73.53,63.99,73.53
		 M70.8,55.03c0-4.17-3.27-6.53-9.16-6.53H47.84v13.43h12.88c6.17,0,10.07-2,10.07-6.71V55.03z M34.23,36.25h29.49
		c7.26,0,12.97,2,16.6,5.62c2.9,2.9,4.35,6.44,4.35,10.8v0.18c0,7.17-3.81,11.16-8.35,13.7c7.35,2.81,11.89,7.08,11.89,15.6v0.18
		c0,11.61-9.44,17.42-23.77,17.42H34.23V36.25z"/>
</g>
<path class="st1" d="M145.59,73.17l-8.44-20.6l-8.44,20.6H145.59z M130.89,35.79h12.88l27.22,63.96h-14.61l-5.81-14.24h-26.86
	l-5.81,14.24h-14.24L130.89,35.79z"/>
<g>
	<path class="st1" d="M220.3,67.09c6.8,0,10.71-3.63,10.71-8.98v-0.18c0-5.99-4.17-9.07-10.98-9.07h-13.88v18.24H220.3z
		 M192.17,36.25h29.03c8.08,0,14.34,2.27,18.51,6.44c3.54,3.54,5.44,8.53,5.44,14.52v0.18c0,10.25-5.53,16.69-13.61,19.69
		l15.51,22.68h-16.33l-13.61-20.32h-10.98v20.32h-13.97V36.25z"/>
</g>
<polygon class="st1" points="270.63,36.25 283.51,36.25 313.27,75.35 313.27,36.25 327.06,36.25 327.06,99.76 315.18,99.76 
	284.42,59.38 284.42,99.76 270.63,99.76 "/>
<polygon class="st1" points="355.56,36.25 403.47,36.25 403.47,48.68 369.45,48.68 369.45,61.56 399.39,61.56 399.39,73.99 
	369.45,73.99 369.45,87.33 403.92,87.33 403.92,99.76 355.56,99.76 "/>
<g>
	<path class="st1" d="M426.27,90.5l8.26-9.89c5.72,4.72,11.7,7.71,18.96,7.71c5.72,0,9.16-2.27,9.16-5.99v-0.18
		c0-3.54-2.18-5.35-12.79-8.08c-12.79-3.26-21.05-6.8-21.05-19.42v-0.18c0-11.52,9.26-19.14,22.23-19.14
		c9.25,0,17.15,2.9,23.59,8.08l-7.26,10.52c-5.63-3.9-11.16-6.26-16.51-6.26c-5.35,0-8.17,2.45-8.17,5.54v0.18
		c0,4.17,2.72,5.53,13.7,8.35c12.88,3.36,20.14,7.98,20.14,19.05v0.18c0,12.61-9.62,19.69-23.32,19.69
		C443.6,100.66,433.9,97.31,426.27,90.5"/>
</g>
<polygon class="st1" points="588.5,35.94 601.38,35.94 631.14,75.04 631.14,35.94 644.93,35.94 644.93,99.45 633.05,99.45 
	602.29,59.08 602.29,99.45 588.5,99.45 "/>
<g>
	<path class="st1" d="M720.65,67.88v-0.18c0-10.89-7.98-19.96-19.24-19.96c-11.25,0-19.05,8.89-19.05,19.78v0.18
		c0,10.89,7.98,19.96,19.23,19.96C712.85,87.65,720.65,78.76,720.65,67.88 M667.76,67.88v-0.18c0-18.05,14.24-32.84,33.84-32.84
		c19.6,0,33.66,14.61,33.66,32.66v0.18c0,18.05-14.24,32.84-33.84,32.84C681.82,100.54,667.76,85.93,667.76,67.88"/>
	<path class="st1" d="M787.78,73.23h-16.15V87.2h16.6c6.17,0,9.89-2.18,9.89-6.9v-0.18C798.13,75.86,794.95,73.23,787.78,73.23
		 M794.59,54.72c0-4.17-3.27-6.53-9.16-6.53h-13.79v13.43h12.88c6.17,0,10.07-2,10.07-6.71V54.72z M758.03,35.94h29.49
		c7.26,0,12.97,2,16.6,5.62c2.9,2.9,4.36,6.44,4.36,10.8v0.18c0,7.17-3.81,11.16-8.35,13.7c7.35,2.81,11.88,7.08,11.88,15.6v0.18
		c0,11.61-9.44,17.42-23.77,17.42h-30.21V35.94z"/>
</g>
<polygon class="st1" points="835.34,35.94 849.31,35.94 849.31,86.75 880.98,86.75 880.98,99.45 835.34,99.45 "/>
<polygon class="st1" points="903.65,35.94 951.56,35.94 951.56,48.37 917.54,48.37 917.54,61.25 947.48,61.25 947.48,73.68 
	917.54,73.68 917.54,87.02 952.01,87.02 952.01,99.45 903.65,99.45 "/>
</svg>
